<svg t="1771913145248" class="icon" viewBox="0 0 1024 1024" version="1.1" xmlns="http://www.w3.org/2000/svg" p-id="9035" width="200" height="200">
  <!-- 圆角背景，模拟 macOS 图标的“卡片底板”质感 -->
  <rect x="0" y="0" width="1024" height="1024" rx="200" ry="200" fill="#F3F5FB"></rect>
  <path d="M921.6 102.4H307.2a61.50144 61.50144 0 0 0-61.44 61.44v798.72a20.48 20.48 0 0 0 20.48 20.48h655.36a61.50144 61.50144 0 0 0 61.44-61.44V163.84a61.50144 61.50144 0 0 0-61.44-61.44z" fill="#ECEFF8" p-id="9036"></path>
  <path d="M438.66112 902.47168c150.99904-182.82496-45.1584-444.57984-262.90176-350.86336A225.4848 225.4848 0 0 0 40.96 757.76c0.08192 210.00192 265.13408 304.20992 397.68064 144.71168z" fill="#6EA5FF" p-id="9037"></path>
  <path d="M430.08 40.96m61.44 0l245.76 0q61.44 0 61.44 61.44l0 40.96q0 61.44-61.44 61.44l-245.76 0q-61.44 0-61.44-61.44l0-40.96q0-61.44 61.44-61.44Z" fill="#6EA5FF" p-id="9038"></path>
  <path d="M245.76 880.64a20.43904 20.43904 0 0 1-14.47936-6.00064l-81.92-81.92a20.48 20.48 0 1 1 28.95872-28.95872l65.2288 65.20832L352.256 684.032a20.48 20.48 0 0 1 32.768 24.576l-122.88 163.84a20.45952 20.45952 0 0 1-14.92992 8.15104A25.43616 25.43616 0 0 1 245.76 880.64z" fill="#ECEFF8" p-id="9039"></path>
  <path d="M696.32 245.76m20.48 0l163.84 0q20.48 0 20.48 20.48l0 163.84q0 20.48-20.48 20.48l-163.84 0q-20.48 0-20.48-20.48l0-163.84q0-20.48 20.48-20.48Z" fill="#6EA5FF" p-id="9040"></path>
  <path d="M634.88 307.2H348.16a20.48 20.48 0 0 1 0-40.96h286.72a20.48 20.48 0 0 1 0 40.96zM634.88 430.08H348.16a20.48 20.48 0 0 1 0-40.96h286.72a20.48 20.48 0 0 1 0 40.96zM880.64 573.44H471.04a20.48 20.48 0 0 1 0-40.96h409.6a20.48 20.48 0 0 1 0 40.96zM880.64 675.84H552.96a20.48 20.48 0 0 1 0-40.96h327.68a20.48 20.48 0 0 1 0 40.96zM880.64 778.24H573.44a20.48 20.48 0 0 1 0-40.96h307.2a20.48 20.48 0 0 1 0 40.96zM880.64 880.64H552.96a20.48 20.48 0 0 1 0-40.96h327.68a20.48 20.48 0 0 1 0 40.96z" fill="#CED4EB" p-id="9041"></path>
</svg>
